<svg width="422" height="382" viewBox="0 0 422 382" fill="none" xmlns="http://www.w3.org/2000/svg">
<rect width="421.509" height="381.501" rx="11.4307" fill="#07193C"/>
<path d="M128.755 40.0244L144.925 56.2011L123.207 77.9196C115.824 85.3088 106.049 89.0482 96.3697 89.0354C86.6971 89.0482 76.9154 85.3088 69.5326 77.9196L47.814 56.2011L63.9844 40.0244L85.7028 61.7429C88.679 64.7063 92.4699 66.1495 96.3633 66.1623C100.257 66.1495 104.047 64.7127 107.024 61.7429L128.742 40.0244H128.755ZM165.739 141.767L144.021 120.048C141.058 117.072 139.621 113.281 139.608 109.388C139.621 105.488 141.058 101.697 144.021 98.7273L165.739 77.0088L149.569 60.8321L127.851 82.5506C120.461 89.9334 116.722 99.7151 116.735 109.388C116.722 119.06 120.461 128.842 127.851 136.218L149.569 157.937L165.746 141.767H165.739ZM63.9908 178.751L85.7092 157.032C88.6854 154.063 92.4699 152.626 96.3697 152.613C100.263 152.626 104.054 154.063 107.03 157.032L128.749 178.751L144.925 162.574L123.207 140.856C115.824 133.467 106.049 129.727 96.3697 129.74C86.6971 129.727 76.9154 133.467 69.5326 140.856L47.814 162.574L63.9908 178.751ZM27.0064 77.0088L48.725 98.7273C51.6883 101.703 53.125 105.494 53.1379 109.388C53.125 113.281 51.6883 117.072 48.725 120.048L27.0064 141.767L43.183 157.943L64.9016 136.225C72.2908 128.842 76.0303 119.067 76.0175 109.394C76.0303 99.7215 72.2908 89.9398 64.9016 82.557L43.183 60.8385L27.0064 77.0152V77.0088Z" fill="#00B4FD"/>
<path d="M357.512 40.0242L373.682 56.2008L351.963 77.9193C344.58 85.3085 334.805 89.048 325.126 89.0352C315.454 89.048 305.672 85.3085 298.289 77.9193L276.571 56.2008L292.741 40.0242L314.459 61.7427C317.436 64.7061 321.226 66.1493 325.12 66.1621C329.013 66.1493 332.804 64.7125 335.78 61.7427L357.499 40.0242H357.512ZM394.496 141.766L372.777 120.048C369.814 117.072 368.377 113.281 368.364 109.387C368.377 105.488 369.814 101.697 372.777 98.727L394.496 77.0085L378.326 60.8319L356.607 82.5504C349.218 89.9332 345.479 99.7148 345.491 109.387C345.479 119.06 349.218 128.842 356.607 136.218L378.326 157.937L394.502 141.766H394.496ZM292.747 178.751L314.466 157.032C317.442 154.062 321.226 152.626 325.126 152.613C329.02 152.626 332.81 154.062 335.787 157.032L357.505 178.751L373.682 162.574L351.963 140.856C344.58 133.466 334.805 129.727 325.126 129.74C315.454 129.727 305.672 133.466 298.289 140.856L276.571 162.574L292.747 178.751ZM255.763 77.0085L277.481 98.727C280.445 101.703 281.882 105.494 281.894 109.387C281.882 113.281 280.445 117.072 277.481 120.048L255.763 141.766L271.939 157.943L293.658 136.225C301.047 128.842 304.787 119.067 304.774 109.394C304.787 99.7213 301.047 89.9396 293.658 82.5568L271.939 60.8383L255.763 77.0149V77.0085Z" fill="#00B4FD"/>
<path d="M128.755 202.751L144.925 218.928L123.207 240.646C115.824 248.035 106.049 251.775 96.3697 251.762C86.6971 251.775 76.9154 248.035 69.5326 240.646L47.814 218.928L63.9844 202.751L85.7028 224.47C88.679 227.433 92.4699 228.876 96.3633 228.889C100.257 228.876 104.047 227.439 107.024 224.47L128.742 202.751H128.755ZM165.739 304.493L144.021 282.775C141.058 279.798 139.621 276.008 139.608 272.114C139.621 268.214 141.058 264.424 144.021 261.454L165.739 239.735L149.569 223.559L127.851 245.277C120.461 252.66 116.722 262.442 116.735 272.114C116.722 281.787 120.461 291.569 127.851 298.945L149.569 320.663L165.746 304.493H165.739ZM63.9908 341.478L85.7092 319.759C88.6854 316.789 92.4699 315.352 96.3697 315.34C100.263 315.352 104.054 316.789 107.03 319.759L128.749 341.478L144.925 325.301L123.207 303.582C115.824 296.193 106.049 292.454 96.3697 292.467C86.6971 292.454 76.9154 296.193 69.5326 303.582L47.814 325.301L63.9908 341.478ZM27.0064 239.735L48.725 261.454C51.6883 264.43 53.125 268.221 53.1379 272.114C53.125 276.008 51.6883 279.798 48.725 282.775L27.0064 304.493L43.183 320.67L64.9016 298.951C72.2908 291.569 76.0303 281.793 76.0175 272.121C76.0303 262.448 72.2908 252.666 64.9016 245.284L43.183 223.565L27.0064 239.742V239.735Z" fill="#00B4FD"/>
<path d="M357.512 202.751L373.682 218.928L351.963 240.646C344.58 248.035 334.805 251.775 325.126 251.762C315.454 251.775 305.672 248.035 298.289 240.646L276.571 218.928L292.741 202.751L314.459 224.47C317.436 227.433 321.226 228.876 325.12 228.889C329.013 228.876 332.804 227.439 335.78 224.47L357.499 202.751H357.512ZM394.496 304.493L372.777 282.775C369.814 279.798 368.377 276.008 368.364 272.114C368.377 268.214 369.814 264.424 372.777 261.454L394.496 239.735L378.326 223.559L356.607 245.277C349.218 252.66 345.479 262.442 345.491 272.114C345.479 281.787 349.218 291.569 356.607 298.945L378.326 320.663L394.502 304.493H394.496ZM292.747 341.478L314.466 319.759C317.442 316.789 321.226 315.352 325.126 315.34C329.02 315.352 332.81 316.789 335.787 319.759L357.505 341.478L373.682 325.301L351.963 303.582C344.58 296.193 334.805 292.454 325.126 292.467C315.454 292.454 305.672 296.193 298.289 303.582L276.571 325.301L292.747 341.478ZM255.763 239.735L277.481 261.454C280.445 264.43 281.882 268.221 281.894 272.114C281.882 276.008 280.445 279.798 277.481 282.775L255.763 304.493L271.94 320.67L293.658 298.951C301.047 291.569 304.787 281.793 304.774 272.121C304.787 262.448 301.047 252.666 293.658 245.284L271.94 223.565L255.763 239.742V239.735Z" fill="#00B4FD"/>
</svg>
